<svg xmlns="http://www.w3.org/2000/svg" xmlns:vectornator="http://vectornator.io" xml:space="preserve" stroke-miterlimit="10" style="fill-rule:nonzero;clip-rule:evenodd;stroke-linecap:round;stroke-linejoin:round" viewBox="0 0 100 100"><g vectornator:layerName="Layer 1"><path fill="#306aff" fill-rule="evenodd" d="M50.987 7.65c23.177 0 41.965 18.788 41.965 41.965 0 23.176-18.788 41.964-41.965 41.964-23.176 0-41.964-18.788-41.964-41.964 0-23.177 18.788-41.965 41.964-41.965Z"/><path fill="#f9f9f9" fill-rule="evenodd" d="M48.436 12.444c20.786 0 37.637 16.85 37.637 37.636s-16.85 37.636-37.637 37.636C27.65 87.716 10.8 70.866 10.8 50.08s16.85-37.636 37.636-37.636Z"/><path fill="none" stroke="#f9f9f9" stroke-linecap="square" stroke-width="1.245" d="M83.368 22.77c0 .938-.042 4.36-.646 5.123-.233.294-1.307-.673-1.465-.77-2.402-1.478-1.362 2.81-1.362 3.864"/><path fill="#306aff" fill-rule="evenodd" d="M37.975 10.612c-2.521.52-4.826 1.91-6.898 3.445a36.46 36.46 0 0 0-4.018 3.487 40.647 40.647 0 0 0-2.83 3.129 38.09 38.09 0 0 0-1.982 2.667 33.56 33.56 0 0 0-1.368 2.19 29.317 29.317 0 0 0-.973 1.842c-1.187 2.468-2.075 5.267-2.103 8.048-.014 1.455.208 2.906.745 4.301.277.718.628 1.401 1.048 2.04.61.925 1.35 1.75 2.177 2.47 1.583 1.38 3.448 2.375 5.366 3.149 2.876 1.161 5.91 1.852 8.94 2.423 2.157.407 4.327.727 6.499 1.033 3.89.548 7.788 1.028 11.66 1.707 2.6.456 5.193.994 7.732 1.743 4.915 1.45 10.04 3.782 12.934 8.39.492.785.909 1.623 1.247 2.491a17.528 17.528 0 0 1 1.048 4.297c.292 2.455.14 4.929-.204 7.368a.788.788 0 0 0 .643.898c.417.063.802-.236.864-.67.395-2.8.544-5.651.12-8.458a18.822 18.822 0 0 0-1.207-4.4 16.35 16.35 0 0 0-1.438-2.708c-3.016-4.562-8.04-7.021-13.004-8.546-2.78-.855-5.627-1.453-8.486-1.951-5.76-1.004-11.583-1.545-17.34-2.569-2.987-.53-5.982-1.166-8.84-2.231-1.906-.71-3.781-1.627-5.371-2.947a10.943 10.943 0 0 1-2.032-2.195 9.131 9.131 0 0 1-.868-1.572c-1.365-3.168-.748-6.777.484-9.875.986-2.48 2.384-4.772 3.973-6.88 1.961-2.6 4.24-4.962 6.779-6.953 1.103-.866 2.264-1.662 3.489-2.33 1.108-.605 2.267-1.106 3.499-1.36a.75.75 0 0 0 .569-.882.729.729 0 0 0-.854-.591Z"/></g></svg>